<svg width="4261" height="1911" xmlns="http://www.w3.org/2000/svg" xmlns:xlink="http://www.w3.org/1999/xlink" xml:space="preserve" overflow="hidden"><defs><clipPath id="clip0"><rect x="149" y="126" width="4261" height="1911"/></clipPath></defs><g clip-path="url(#clip0)" transform="translate(-149 -126)"><rect x="151.5" y="768.5" width="1077" height="939" stroke="#000000" stroke-width="4.58333" stroke-miterlimit="8" fill="none"/><rect x="1325.5" y="768.5" width="397" height="939" stroke="#000000" stroke-width="4.58333" stroke-miterlimit="8" fill="none"/><rect x="1819.5" y="768.5" width="727" height="939" stroke="#000000" stroke-width="4.58333" stroke-miterlimit="8" fill="none"/><rect x="2667.5" y="768.5" width="1102" height="939" stroke="#000000" stroke-width="4.58333" stroke-miterlimit="8" fill="none"/><rect x="3882.5" y="764.5" width="376" height="939" stroke="#000000" stroke-width="4.58333" stroke-miterlimit="8" fill="none"/><rect x="431.5" y="1096.5" width="183" height="283" stroke="#000000" stroke-width="4.58333" stroke-miterlimit="8" fill="none"/><text font-family="DengXian,DengXian_MSFontService,sans-serif" font-weight="400" font-size="55" transform="matrix(1 0 0 1 464.119 1222)">fetch<tspan font-size="55" x="-12.0313" y="66">buffer</tspan></text><rect x="673.5" y="1096.5" width="220" height="283" stroke="#000000" stroke-width="4.58333" stroke-miterlimit="8" fill="none"/><text font-family="DengXian,DengXian_MSFontService,sans-serif" font-weight="400" font-size="55" transform="matrix(1 0 0 1 741.698 1222)">inst<tspan font-size="55" x="-55.8709" y="66">decoder</tspan></text><rect x="1022.5" y="1096.5" width="175" height="283" stroke="#000000" stroke-width="4.58333" stroke-miterlimit="8" fill="none"/><text font-family="DengXian,DengXian_MSFontService,sans-serif" font-weight="400" font-size="55" transform="matrix(1 0 0 1 1050.8 1222)">fetch<tspan font-size="55" x="-15.7667" y="66">queue</tspan></text><path d="M614.5 1236.21 650.026 1236.21 650.026 1240.79 614.5 1240.79ZM645.443 1224.75 672.943 1238.5 645.443 1252.25Z"/><path d="M893.5 1236.21 998.945 1236.21 998.945 1240.79 893.5 1240.79ZM994.362 1224.75 1021.86 1238.5 994.362 1252.25Z"/><rect x="831.5" y="840.5" width="253" height="156" stroke="#000000" stroke-width="4.58333" stroke-miterlimit="8" fill="none"/><text font-family="DengXian,DengXian_MSFontService,sans-serif" font-weight="400" font-size="55" transform="matrix(1 0 0 1 886.628 903)">bpred<tspan font-size="55" x="25.5062" y="66">unit</tspan></text><path d="M959.792 1019.42 959.792 1215.23 955.208 1215.23 955.208 1019.42ZM943.75 1024 957.5 996.5 971.25 1024ZM971.25 1210.65 957.5 1238.15 943.75 1210.65Z"/><rect x="254.5" y="1780.5" width="174" height="181" stroke="#000000" stroke-width="4.58333" stroke-miterlimit="8" fill="none"/><text font-family="DengXian,DengXian_MSFontService,sans-serif" font-weight="400" font-size="55" transform="matrix(1 0 0 1 279.161 1856)">mmu<tspan font-size="55" x="18.9063" y="66">TLB</tspan></text><rect x="520.5" y="1539.5" width="339" height="112" stroke="#000000" stroke-width="4.58333" stroke-miterlimit="8" fill="none"/><text font-family="DengXian,DengXian_MSFontService,sans-serif" font-weight="400" font-size="55" transform="matrix(1 0 0 1 558.884 1613)">icache<tspan font-size="55" x="162.135" y="0">port</tspan></text><path d="M371.208 1780.83 371.208 1617.21 497.644 1617.21 497.644 1621.79 373.5 1621.79 375.792 1619.5 375.792 1780.83ZM493.061 1605.75 520.561 1619.5 493.061 1633.25Z"/><path d="M521.026 1574.44 371.851 1574.44 371.851 1236.21 408.583 1236.21 408.583 1240.79 374.143 1240.79 376.435 1238.5 376.435 1572.15 374.143 1569.86 521.026 1569.86ZM404 1224.75 431.5 1238.5 404 1252.25Z"/><path d="M257.5 1236.21 311.159 1236.21 311.159 1758.18 306.576 1758.18 306.576 1238.5 308.868 1240.79 257.5 1240.79ZM322.618 1753.6 308.868 1781.1 295.118 1753.6Z"/><rect x="196.5" y="1096.5" width="60.9998" height="283" stroke="#000000" stroke-width="4.58333" stroke-miterlimit="8" fill="none"/><path d="M199.5 1379.5 227 1320.5 254.5 1379.5Z" stroke="#000000" stroke-width="4.58333" stroke-miterlimit="8" fill="none" fill-rule="evenodd"/><text font-family="DengXian,DengXian_MSFontService,sans-serif" font-weight="700" font-size="64" transform="matrix(1 0 0 1 198.365 861)">Fetch</text><path d="M1197.51 1236.21 1362.02 1237.19 1362 1241.77 1197.49 1240.79ZM1357.51 1225.7 1384.93 1239.61 1357.35 1253.2Z"/><text font-family="DengXian,DengXian_MSFontService,sans-serif" font-weight="700" font-size="64" transform="matrix(1 0 0 1 1360.07 861)">Decode<tspan font-weight="400" font-size="55" x="-1166.15" y="202">PC</tspan></text><rect x="1873.5" y="1476.5" width="449" height="164" stroke="#000000" stroke-width="4.58333" stroke-miterlimit="8" fill="none"/><text font-family="DengXian,DengXian_MSFontService,sans-serif" font-weight="400" font-size="55" transform="matrix(1 0 0 1 2018.22 1543)">history<tspan font-size="55" x="8.89172" y="66">buffer</tspan></text><rect x="2273.5" y="1124.5" width="227" height="227" stroke="#000000" stroke-width="4.58333" stroke-miterlimit="8" fill="none"/><text font-family="DengXian,DengXian_MSFontService,sans-serif" font-weight="400" font-size="55" transform="matrix(1 0 0 1 2323.71 1222)">score<tspan font-size="55" x="-7.74585" y="66">board</tspan></text><path d="M0.0140381-2.29162 159.14-1.31685 159.112 3.2664-0.0140381 2.29162ZM154.627-12.803 182.042 1.11516 154.458 14.6964Z" transform="matrix(1 0 0 -1 1691.5 1238.62)"/><path d="M2100.5 1235.21 2251.02 1235.21 2251.02 1239.79 2100.5 1239.79ZM2246.44 1223.75 2273.94 1237.5 2246.44 1251.25Z"/><path d="M1988.79 1351.5 1988.79 1453.47 1984.21 1453.47 1984.21 1351.5ZM2000.25 1448.89 1986.5 1476.39 1972.75 1448.89Z"/><path d="M2188.79 1060.5 2188.79 1454.11 2184.21 1454.11 2184.21 1060.5ZM2200.25 1449.52 2186.5 1477.02 2172.75 1449.52Z"/><path d="M2330.2 1058.96 2372.85 1106.22 2369.45 1109.29 2326.8 1062.04ZM2378.29 1095.14 2386.5 1124.77 2357.87 1113.57Z"/><path d="M0.00930493-2.29165 241.694-1.31032 241.675 3.27297-0.00930493 2.29165ZM237.157-12.7872 264.601 1.07438 237.045 14.7126Z" transform="matrix(1 0 0 -1 2500.5 1237.57)"/><text font-family="DengXian,DengXian_MSFontService,sans-serif" font-weight="700" font-size="64" transform="matrix(1 0 0 1 1872.78 861)">Rename</text><rect x="2764.5" y="1151.5" width="323" height="171" stroke="#000000" stroke-width="4.58333" stroke-miterlimit="8" fill="none"/><text font-family="DengXian,DengXian_MSFontService,sans-serif" font-weight="400" font-size="55" transform="matrix(1 0 0 1 2802.78 1254)">inst<tspan font-size="55" x="97.3958" y="0">queue</tspan></text><rect x="2757.5" y="1366.5" width="388" height="313" stroke="#000000" stroke-width="4.58333" stroke-miterlimit="8" fill="none"/><rect x="2812.5" y="918.5" width="226" height="152" stroke="#000000" stroke-width="4.58333" stroke-miterlimit="8" fill="none"/><text font-family="DengXian,DengXian_MSFontService,sans-serif" font-weight="400" font-size="55" transform="matrix(1 0 0 1 2840.88 1012)">FUPool</text><path d="M3206.9 1477.7C3204.27 1455.58 3217.81 1435.21 3237.15 1432.2 3244.98 1430.98 3252.95 1432.81 3259.77 1437.38 3267 1421.79 3283.89 1415.87 3297.49 1424.15 3299.87 1425.59 3302.06 1427.43 3303.98 1429.59 3309.61 1416.67 3323.32 1411.42 3334.61 1417.87 3337.73 1419.65 3340.45 1422.23 3342.57 1425.41 3351.64 1413.19 3367.68 1411.68 3378.38 1422.04 3382.88 1426.39 3385.91 1432.4 3386.96 1439.02 3401.83 1443.67 3410.6 1461.25 3406.55 1478.29 3406.21 1479.73 3405.78 1481.13 3405.27 1482.49 3417.2 1500.26 3414.28 1525.71 3398.75 1539.35 3393.92 1543.6 3388.21 1546.35 3382.18 1547.34 3382.05 1566.45 3368.39 1581.81 3351.67 1581.66 3346.09 1581.61 3340.63 1579.79 3335.89 1576.41 3330.24 1597.83 3310.52 1609.94 3291.85 1603.46 3284.02 1600.74 3277.26 1594.99 3272.72 1587.19 3253.6 1600.38 3228.79 1593.29 3217.3 1571.34 3217.15 1571.06 3217.01 1570.78 3216.87 1570.5 3204.36 1572.18 3193.02 1561.96 3191.56 1547.69 3190.77 1540.08 3192.97 1532.46 3197.56 1526.86 3186.72 1519.57 3183.08 1503.55 3189.43 1491.09 3193.09 1483.9 3199.51 1479.15 3206.71 1478.29Z" stroke="#000000" stroke-width="4.58333" stroke-miterlimit="8" fill="none" fill-rule="evenodd"/><path d="M3211.05 1529.63C3206.43 1530.04 3201.8 1528.82 3197.8 1526.13M3222.74 1567.99C3220.88 1568.84 3218.93 1569.4 3216.95 1569.67M3272.7 1586.42C3271.31 1584.02 3270.13 1581.46 3269.21 1578.77M3337.31 1567.34C3337.1 1570.19 3336.63 1573 3335.91 1575.74M3365.05 1515.46C3375.53 1521.29 3382.15 1533.5 3382.05 1546.84M3405.17 1482.03C3403.47 1486.57 3400.87 1490.6 3397.59 1493.8M3386.99 1438.36C3387.28 1440.2 3387.41 1442.06 3387.39 1443.92M3338.62 1431.88C3339.61 1429.32 3340.91 1426.93 3342.5 1424.79M3302.33 1435.26C3302.73 1433.14 3303.36 1431.09 3304.21 1429.15M3259.74 1437.34C3262.21 1438.99 3264.49 1440.98 3266.54 1443.27M3208.09 1483.94C3207.55 1481.9 3207.15 1479.82 3206.9 1477.7" stroke="#000000" stroke-width="4.58333" stroke-miterlimit="8" fill="none" fill-rule="evenodd"/><path d="M3524.99 1205.7C3522.35 1183.58 3535.95 1163.21 3555.37 1160.2 3563.24 1158.98 3571.24 1160.81 3578.09 1165.38 3585.35 1149.79 3602.32 1143.87 3615.99 1152.15 3618.38 1153.59 3620.57 1155.43 3622.5 1157.59 3628.15 1144.67 3641.93 1139.42 3653.26 1145.87 3656.4 1147.65 3659.14 1150.23 3661.26 1153.41 3670.37 1141.19 3686.48 1139.68 3697.23 1150.04 3701.75 1154.39 3704.8 1160.4 3705.85 1167.02 3720.78 1171.67 3729.59 1189.25 3725.52 1206.29 3725.18 1207.73 3724.75 1209.13 3724.24 1210.49 3736.22 1228.26 3733.28 1253.71 3717.69 1267.35 3712.84 1271.6 3707.1 1274.35 3701.05 1275.34 3700.91 1294.45 3687.19 1309.81 3670.41 1309.66 3664.8 1309.61 3659.31 1307.79 3654.55 1304.41 3648.87 1325.83 3629.07 1337.94 3610.31 1331.46 3602.45 1328.74 3595.66 1322.99 3591.1 1315.19 3571.9 1328.38 3546.97 1321.29 3535.43 1299.34 3535.29 1299.06 3535.14 1298.78 3535 1298.5 3522.44 1300.18 3511.05 1289.96 3509.58 1275.69 3508.79 1268.08 3511 1260.46 3515.61 1254.86 3504.73 1247.57 3501.07 1231.55 3507.44 1219.09 3511.12 1211.9 3517.57 1207.15 3524.8 1206.29Z" stroke="#000000" stroke-width="4.58333" stroke-miterlimit="8" fill="none" fill-rule="evenodd"/><path d="M3529.16 1257.63C3524.51 1258.04 3519.87 1256.82 3515.85 1254.13M3540.9 1295.99C3539.04 1296.84 3537.08 1297.4 3535.08 1297.67M3591.09 1314.42C3589.68 1312.02 3588.5 1309.46 3587.58 1306.77M3655.98 1295.34C3655.77 1298.19 3655.3 1301 3654.57 1303.74M3683.84 1243.46C3694.37 1249.29 3701.01 1261.5 3700.92 1274.84M3724.13 1210.03C3722.43 1214.57 3719.82 1218.6 3716.53 1221.8M3705.88 1166.36C3706.17 1168.2 3706.3 1170.06 3706.28 1171.92M3657.29 1159.88C3658.29 1157.32 3659.6 1154.93 3661.19 1152.79M3620.84 1163.26C3621.25 1161.14 3621.88 1159.09 3622.73 1157.15M3578.06 1165.34C3580.54 1166.99 3582.84 1168.98 3584.9 1171.27M3526.19 1211.94C3525.64 1209.9 3525.25 1207.82 3524.99 1205.7" stroke="#000000" stroke-width="4.58333" stroke-miterlimit="8" fill="none" fill-rule="evenodd"/><text font-family="DengXian,DengXian_MSFontService,sans-serif" font-weight="400" font-size="55" transform="matrix(1 0 0 1 3260.37 1526)">exe<tspan font-size="55" x="325.326" y="-272">wb</tspan></text><path d="M3087.51 1234.21 3163.7 1234.41 3163.68 1238.99 3087.49 1238.79ZM3159.14 1222.94 3186.61 1236.76 3159.07 1250.44Z"/><path d="M8.92463e-06-2.29167 69.7533-2.29139 69.7533 2.29194-8.92463e-06 2.29167ZM65.17-13.7497 92.6699 0.000360892 65.1699 13.7503Z" transform="matrix(1 0 0 -1 3412.5 1237.5)"/><path d="M0-2.29167 274.231-2.29167 274.231 105.491 269.647 105.491 269.647 0 271.939 2.29167 0 2.29167ZM285.689 100.908 271.939 128.408 258.189 100.908Z" transform="matrix(1.83697e-16 1 1 -1.83697e-16 2712.5 1237.5)"/><rect x="2840.5" y="1468.5" width="221" height="81.0001" stroke="#000000" stroke-width="4.58333" stroke-miterlimit="8" fill="none"/><text font-family="DengXian,DengXian_MSFontService,sans-serif" font-weight="400" font-size="55" transform="matrix(1 0 0 1 2854.18 1527)">LSQUnit</text><rect x="2795.5" y="1570.5" width="311" height="80.9998" stroke="#000000" stroke-width="4.58333" stroke-miterlimit="8" fill="none"/><text font-family="DengXian,DengXian_MSFontService,sans-serif" font-weight="400" font-size="55" transform="matrix(1 0 0 1 2809.78 1629)">dcache<tspan font-size="55" x="181.615" y="0">port</tspan></text><path d="M3061.5 1507.21 3164.47 1507.36 3164.46 1511.94 3061.5 1511.79ZM3159.9 1495.9 3187.38 1509.69 3159.86 1523.4Z"/><text font-family="DengXian,DengXian_MSFontService,sans-serif" font-weight="400" font-size="55" transform="matrix(1 0 0 1 2780.72 1431)">LSQ</text><rect x="3180.5" y="1761.5" width="174" height="181" stroke="#000000" stroke-width="4.58333" stroke-miterlimit="8" fill="none"/><text font-family="DengXian,DengXian_MSFontService,sans-serif" font-weight="400" font-size="55" transform="matrix(1 0 0 1 3205.31 1836)">mmu<tspan font-size="55" x="18.9063" y="66">TLB</tspan></text><path d="M3301.79 1604.49 3302.09 1738.67 3297.51 1738.68 3297.21 1604.51ZM3313.54 1734.06 3299.85 1761.59 3286.04 1734.12Z"/><path d="M0-2.29167 152.512-2.29167 152.512 105.959 147.929 105.959 147.929 0 150.221 2.29167 0 2.29167ZM163.971 101.375 150.221 128.875 136.471 101.375Z" transform="matrix(-1.83697e-16 -1 -1 1.83697e-16 3235.38 1761.72)"/><path d="M2.29167-3.20803e-06 2.292 234.888-2.29134 234.888-2.29167 3.20803e-06ZM13.7503 230.305 0.000360892 257.805-13.7497 230.305Z" transform="matrix(1 0 0 -1 3299.5 1153.3)"/><path d="M2927.95 1093.4 2928.2 1128.71 2923.62 1128.74 2923.37 1093.43ZM2911.94 1098.1 2925.5 1070.5 2939.44 1097.9ZM2939.63 1124.04 2926.07 1151.64 2912.13 1124.24Z"/><text font-family="DengXian,DengXian_MSFontService,sans-serif" font-weight="700" font-size="64" transform="matrix(1 0 0 1 2713.58 860)">IEW</text><path d="M3730.5 1235.21 3924.19 1235.22 3924.18 1239.81 3730.5 1239.79ZM3919.6 1223.76 3947.1 1237.52 3919.6 1251.26Z"/><rect x="3947.5" y="1441.5" width="257" height="202" stroke="#000000" stroke-width="4.58333" stroke-miterlimit="8" fill="none"/><text font-family="DengXian,DengXian_MSFontService,sans-serif" font-weight="400" font-size="55" transform="matrix(1 0 0 1 4023.47 1560)">ROB</text><path d="M3297.21 1425.31 3297.21 1370.04 3451.94 1370.04 3449.64 1372.33 3449.64 1058.42 3454.23 1058.42 3454.23 1374.62 3299.5 1374.62 3301.79 1372.33 3301.79 1425.31ZM3438.19 1063 3451.94 1035.5 3465.69 1063Z"/><path d="M2.29167-0.00152475 2.34571 81.2249-2.23762 81.2279-2.29167 0.00152475ZM13.801 76.6339 0.0692913 104.143-13.699 76.6522Z" transform="matrix(1 0 0 -1 1537.5 1140.64)"/><text font-family="DengXian,DengXian_MSFontService,sans-serif" font-weight="400" font-size="55" transform="matrix(1 0 0 1 1440.7 1004)">mispred<tspan font-size="55" x="1762.63" y="-142">mispred</tspan><tspan font-size="55" x="1950.32" y="-68">mem</tspan><tspan font-size="55" x="1946.31" y="-2">order</tspan></text><path d="M2596 1238C2596 1233.58 2599.81 1230 2604.5 1230 2609.19 1230 2613 1233.58 2613 1238 2613 1242.42 2609.19 1246 2604.5 1246 2599.81 1246 2596 1242.42 2596 1238Z" fill-rule="evenodd"/><path d="M2703 1236.5C2703 1231.81 2706.81 1228 2711.5 1228 2716.19 1228 2720 1231.81 2720 1236.5 2720 1241.19 2716.19 1245 2711.5 1245 2706.81 1245 2703 1241.19 2703 1236.5Z" fill-rule="evenodd"/><path d="M2607.79 1236.5 2607.79 2034.5 2605.5 2032.21 3824.99 2032.21 3822.7 2034.5 3822.7 1544.84 3924.58 1544.84 3924.58 1549.42 3824.99 1549.42 3827.29 1547.13 3827.29 2036.79 2603.21 2036.79 2603.21 1236.5ZM3920 1533.38 3947.5 1547.13 3920 1560.88Z"/><path d="M692.792 1674.42 692.792 1692.75 688.208 1692.75 688.208 1674.42ZM692.792 1706.5 692.792 1724.83 688.209 1724.83 688.209 1706.5ZM692.792 1738.58 692.792 1756.92 688.209 1756.92 688.209 1738.58ZM692.792 1770.67 692.792 1789 688.209 1789 688.209 1770.67ZM692.792 1802.75 692.792 1821.08 688.209 1821.08 688.209 1802.75ZM692.792 1834.83 692.792 1853.17 688.209 1853.17 688.209 1834.83ZM692.792 1866.92 692.792 1885.25 688.209 1885.25 688.209 1866.92ZM692.792 1899 692.792 1905.98 688.209 1905.98 688.209 1899ZM676.75 1679 690.5 1651.5 704.25 1679ZM704.25 1901.39 690.5 1928.89 676.75 1901.39Z"/><path d="M2952.79 1674.42 2952.79 1692.75 2948.21 1692.75 2948.21 1674.42ZM2952.79 1706.5 2952.79 1724.83 2948.21 1724.83 2948.21 1706.5ZM2952.79 1738.58 2952.79 1756.92 2948.21 1756.92 2948.21 1738.58ZM2952.79 1770.67 2952.79 1789 2948.21 1789 2948.21 1770.67ZM2952.79 1802.75 2952.79 1821.08 2948.21 1821.08 2948.21 1802.75ZM2952.79 1834.83 2952.79 1853.17 2948.21 1853.17 2948.21 1834.83ZM2952.79 1866.92 2952.79 1883.36 2948.21 1883.36 2948.21 1866.92ZM2936.75 1679 2950.5 1651.5 2964.25 1679ZM2964.25 1878.77 2950.5 1906.27 2936.75 1878.77Z"/><rect x="3493.5" y="1388.5" width="227" height="227" stroke="#000000" stroke-width="4.58333" stroke-miterlimit="8" fill="none"/><text font-family="DengXian,DengXian_MSFontService,sans-serif" font-weight="400" font-size="55" transform="matrix(1 0 0 1 3567.57 1487)">reg<tspan font-size="55" x="5.15625" y="66">file</tspan></text><path d="M22.9167-2.29156 58.3809-2.29141 58.3808 2.29193 22.9167 2.29177ZM27.4999 13.7501 0 0 27.5001-13.7499ZM53.7976-13.7498 81.2975 0.000360892 53.7974 13.7502Z" transform="matrix(1 0 0 -1 3412.5 1505.5)"/><path d="M3394.79 1306.09 3477.32 1372.52 3474.44 1376.09 3391.91 1309.66ZM3388.3 1321.46 3375.5 1293.5 3405.54 1300.03ZM3480.93 1360.72 3493.73 1388.68 3463.69 1382.15Z"/><path d="M0-2.29167 696.273-2.29167 696.273 291.042 691.69 291.042 691.69 0 693.982 2.29167 0 2.29167ZM707.732 286.459 693.982 313.959 680.232 286.459Z" fill="#FF0000" transform="matrix(-1.83697e-16 -1 -1 1.83697e-16 4076.46 1092.48)"/><text font-family="DengXian,DengXian_MSFontService,sans-serif" font-weight="700" font-size="64" transform="matrix(1 0 0 1 3915.11 860)">Commit<tspan fill="#FF0000" font-weight="400" font-size="64" x="193.191" y="97">enter</tspan><tspan fill="#FF0000" font-weight="400" font-size="64" x="193.191" y="174">runahead</tspan></text><rect x="1228.5" y="313.5" width="257" height="255" stroke="#000000" stroke-width="4.58333" stroke-miterlimit="8" fill="#F2F2F2"/><text font-family="DengXian,DengXian_MSFontService,sans-serif" font-weight="400" font-size="55" transform="matrix(1 0 0 1 1314.38 459)">SST</text><rect x="1575.5" y="313.5" width="257" height="255" stroke="#000000" stroke-width="4.58333" stroke-miterlimit="8" fill="#F2F2F2"/><text font-family="DengXian,DengXian_MSFontService,sans-serif" font-weight="400" font-size="55" transform="matrix(1 0 0 1 1663.93 426)">last<tspan font-size="55" x="-67.9021" y="66">producer</tspan><tspan font-size="64" x="1784.34" y="-221">lastInstBeforePRE</tspan></text><path d="M22.9168-2.29167 470.584-2.29167 470.584 96.4925 468.292 94.2009 558.278 94.2009 558.278 98.7842 466 98.7842 466 0 468.292 2.29167 22.9168 2.29167ZM27.5 13.75 0 0 27.5-13.75ZM553.695 82.7425 581.195 96.4925 553.695 110.243Z" fill="#FF0000" transform="matrix(-1.83697e-16 -1 -1 1.83697e-16 1453.99 1149.69)"/><path d="M1619.21 1105.19 1619.21 672.55 1703.88 672.55 1701.59 674.841 1701.59 591.417 1706.18 591.417 1706.18 677.133 1621.5 677.133 1623.79 674.841 1623.79 1105.19ZM1635.25 1100.6 1621.5 1128.1 1607.75 1100.6ZM1690.13 596 1703.88 568.5 1717.63 596Z" fill="#FF0000"/><path d="M1411.31 1202.35C1407.72 1176.5 1426.18 1152.7 1452.52 1149.19 1463.2 1147.76 1474.05 1149.89 1483.35 1155.23 1493.2 1137.02 1516.22 1130.1 1534.77 1139.77 1538.01 1141.46 1540.99 1143.61 1543.6 1146.14 1551.28 1131.04 1569.96 1124.9 1585.34 1132.44 1589.6 1134.52 1593.31 1137.54 1596.2 1141.25 1608.56 1126.97 1630.42 1125.21 1645 1137.31 1651.14 1142.4 1655.27 1149.41 1656.69 1157.15 1676.96 1162.58 1688.91 1183.12 1683.39 1203.04 1682.93 1204.71 1682.35 1206.35 1681.65 1207.95 1697.9 1228.7 1693.92 1258.44 1672.76 1274.38 1666.18 1279.34 1658.4 1282.56 1650.18 1283.71 1650 1306.04 1631.38 1323.99 1608.6 1323.81 1600.99 1323.75 1593.55 1321.63 1587.09 1317.68 1579.39 1342.71 1552.52 1356.86 1527.07 1349.28 1516.41 1346.1 1507.19 1339.39 1501 1330.27 1474.95 1345.69 1441.13 1337.4 1425.47 1311.75 1425.27 1311.43 1425.08 1311.1 1424.89 1310.78 1407.84 1312.73 1392.39 1300.8 1390.39 1284.12 1389.32 1275.23 1392.32 1266.33 1398.57 1259.79 1383.81 1251.26 1378.85 1232.55 1387.49 1217.99 1392.48 1209.59 1401.23 1204.04 1411.05 1203.04Z" stroke="#000000" stroke-width="4.58333" stroke-miterlimit="8" fill="none" fill-rule="evenodd"/><path d="M1416.96 1263.02C1410.66 1263.5 1404.35 1262.08 1398.9 1258.93M1432.89 1307.84C1430.36 1308.83 1427.7 1309.49 1424.99 1309.8M1500.98 1329.38C1499.08 1326.57 1497.48 1323.58 1496.22 1320.44M1589.03 1307.08C1588.75 1310.41 1588.11 1313.7 1587.12 1316.89M1626.83 1246.46C1641.12 1253.28 1650.14 1267.55 1650.01 1283.13M1681.5 1207.4C1679.19 1212.71 1675.66 1217.41 1671.18 1221.15M1656.74 1156.38C1657.13 1158.53 1657.31 1160.7 1657.28 1162.88M1590.82 1148.81C1592.16 1145.81 1593.94 1143.02 1596.1 1140.53M1541.36 1152.76C1541.91 1150.28 1542.77 1147.88 1543.92 1145.61M1483.31 1155.18C1486.68 1157.11 1489.79 1159.44 1492.58 1162.11M1412.92 1209.64C1412.19 1207.25 1411.65 1204.82 1411.31 1202.35" stroke="#000000" stroke-width="4.58333" stroke-miterlimit="8" fill="none" fill-rule="evenodd"/><text font-family="DengXian,DengXian_MSFontService,sans-serif" font-weight="400" font-size="55" transform="matrix(1 0 0 1 1501.13 1218)">br<tspan font-size="55" x="-41.5479" y="66">check</tspan></text><rect x="3947.5" y="1092.5" width="257" height="290" stroke="#000000" stroke-width="4.58333" stroke-miterlimit="8" fill="none"/><text font-family="DengXian,DengXian_MSFontService,sans-serif" font-weight="400" font-size="55" transform="matrix(1 0 0 1 3986.22 1189)">commit<tspan font-size="55" x="-0.275147" y="66">rename</tspan><tspan font-size="55" x="36.6665" y="132">map</tspan></text><rect x="3612.5" y="253.5" width="150" height="290" stroke="#000000" stroke-width="4.58333" stroke-miterlimit="8" fill="#F2F2F2"/><text font-family="DengXian,DengXian_MSFontService,sans-serif" font-weight="400" font-size="55" transform="matrix(1 0 0 1 3654.46 416)">PC</text><path d="M2030.79 1350.5 2030.79 1664.91 2026.21 1664.91 2026.21 1350.5ZM2042.25 1660.33 2028.5 1687.83 2014.75 1660.33Z" fill="#FF0000"/><path d="M2.29167-1.31827e-06 2.29201 604.458-2.29132 604.458-2.29167 1.31827e-06ZM13.7503 599.874 0.000360892 627.374-13.7497 599.874Z" fill="#FF0000" transform="matrix(-1 0 0 1 2234.5 1060.5)"/><rect x="1873.5" y="1687.5" width="448" height="164" stroke="#000000" stroke-width="4.58333" stroke-miterlimit="8" fill="#F2F2F2"/><text font-family="DengXian,DengXian_MSFontService,sans-serif" font-weight="400" font-size="55" transform="matrix(1 0 0 1 2026.36 1787)">PRDQ</text><rect x="1873.5" y="1124.5" width="227" height="227" stroke="#000000" stroke-width="4.58333" stroke-miterlimit="8" fill="none"/><text font-family="DengXian,DengXian_MSFontService,sans-serif" font-weight="400" font-size="55" transform="matrix(1 0 0 1 1896.66 1222)">rename<tspan font-size="55" x="36.9417" y="66">map</tspan></text><path d="M1.67556-1.5634 44.0449 43.8454 40.6937 46.9722-1.67556 1.5634ZM49.2959 32.6773 58.0033 62.1644 29.1891 51.4381Z" transform="matrix(1 0 0 -1 1986.5 1124.66)"/><rect x="2044.5" y="926.5" width="284" height="134" stroke="#000000" stroke-width="4.58333" stroke-miterlimit="8" fill="none"/><text font-family="DengXian,DengXian_MSFontService,sans-serif" font-weight="400" font-size="55" transform="matrix(1 0 0 1 2101.3 1011)">free<tspan font-size="55" x="105.99" y="0">list</tspan></text><path d="M0-2.29167 366.619-2.29167 366.619 740.465 362.036 740.465 362.036 0 364.328 2.29167 0 2.29167ZM378.078 735.882 364.328 763.382 350.578 735.882Z" fill="#FF0000" transform="matrix(-1 1.22465e-16 1.22465e-16 1 3612.83 398.5)"/><path d="M3205.99 1205.7C3203.35 1183.58 3216.95 1163.21 3236.37 1160.2 3244.24 1158.98 3252.24 1160.81 3259.09 1165.38 3266.35 1149.79 3283.32 1143.87 3296.99 1152.15 3299.38 1153.59 3301.57 1155.43 3303.5 1157.59 3309.15 1144.67 3322.93 1139.42 3334.26 1145.87 3337.4 1147.65 3340.14 1150.23 3342.26 1153.41 3351.37 1141.19 3367.48 1139.68 3378.23 1150.04 3382.75 1154.39 3385.8 1160.4 3386.85 1167.02 3401.78 1171.67 3410.59 1189.25 3406.52 1206.29 3406.18 1207.73 3405.75 1209.13 3405.24 1210.49 3417.22 1228.26 3414.28 1253.71 3398.69 1267.35 3393.84 1271.6 3388.1 1274.35 3382.05 1275.34 3381.91 1294.45 3368.19 1309.81 3351.41 1309.66 3345.8 1309.61 3340.31 1307.79 3335.55 1304.41 3329.87 1325.83 3310.07 1337.94 3291.31 1331.46 3283.45 1328.74 3276.66 1322.99 3272.1 1315.19 3252.9 1328.38 3227.97 1321.29 3216.43 1299.34 3216.29 1299.06 3216.14 1298.78 3216 1298.5 3203.44 1300.18 3192.05 1289.96 3190.58 1275.69 3189.79 1268.08 3192 1260.46 3196.61 1254.86 3185.73 1247.57 3182.07 1231.55 3188.44 1219.09 3192.12 1211.9 3198.57 1207.15 3205.8 1206.29Z" stroke="#000000" stroke-width="4.58333" stroke-miterlimit="8" fill="#FFFFFF" fill-rule="evenodd"/><path d="M3210.16 1257.63C3205.51 1258.04 3200.87 1256.82 3196.85 1254.13M3221.9 1295.99C3220.04 1296.84 3218.08 1297.4 3216.08 1297.67M3272.09 1314.42C3270.68 1312.02 3269.5 1309.46 3268.58 1306.77M3336.98 1295.34C3336.77 1298.19 3336.3 1301 3335.57 1303.74M3364.84 1243.46C3375.37 1249.29 3382.01 1261.5 3381.92 1274.84M3405.13 1210.03C3403.43 1214.57 3400.82 1218.6 3397.53 1221.8M3386.88 1166.36C3387.17 1168.2 3387.3 1170.06 3387.28 1171.92M3338.29 1159.88C3339.29 1157.32 3340.6 1154.93 3342.19 1152.79M3301.84 1163.26C3302.25 1161.14 3302.88 1159.09 3303.73 1157.15M3259.06 1165.34C3261.54 1166.99 3263.84 1168.98 3265.9 1171.27M3207.19 1211.94C3206.64 1209.9 3206.25 1207.82 3205.99 1205.7" stroke="#000000" stroke-width="4.58333" stroke-miterlimit="8" fill="none" fill-rule="evenodd"/><text font-family="DengXian,DengXian_MSFontService,sans-serif" font-weight="400" font-size="55" transform="matrix(1 0 0 1 3258.91 1254)">exe<tspan fill="#FF0000" font-size="64" x="-139.893" y="-665">exit</tspan><tspan fill="#FF0000" font-size="64" x="-306.039" y="-588">runahead</tspan></text></g></svg>