<svg width="3917" height="1647" xmlns="http://www.w3.org/2000/svg" xmlns:xlink="http://www.w3.org/1999/xlink" xml:space="preserve" overflow="hidden"><defs><clipPath id="clip0"><rect x="190" y="328" width="3917" height="1647"/></clipPath></defs><g clip-path="url(#clip0)" transform="translate(-190 -328)"><rect x="2852.5" y="1043.5" width="389" height="389" stroke="#000000" stroke-width="4.58333" stroke-miterlimit="8" fill="none"/><text font-family="DengXian,DengXian_MSFontService,sans-serif" font-weight="700" font-size="73" transform="matrix(1 0 0 1 2981.58 1261)">IEW</text><path d="M686.5 1236.21 1120.43 1236.21 1120.43 1240.79 686.5 1240.79ZM1115.84 1224.75 1143.34 1238.5 1115.84 1252.25Z" fill="#0070C0"/><path d="M1533.5 1236.21 1983.14 1236.21 1983.14 1240.79 1533.5 1240.79ZM1978.56 1224.75 2006.06 1238.5 1978.56 1252.25Z" fill="#0070C0"/><path d="M2395.5 1236.21 2829.43 1236.21 2829.43 1240.79 2395.5 1240.79ZM2824.84 1224.75 2852.34 1238.5 2824.84 1252.25Z" fill="#0070C0"/><path d="M3241.5 1236.21 3691.14 1236.21 3691.14 1240.79 3241.5 1240.79ZM3686.56 1224.75 3714.06 1238.5 3686.56 1252.25Z" fill="#0070C0"/><text fill="#0070C0" font-family="DengXian,DengXian_MSFontService,sans-serif" font-weight="400" font-size="73" transform="matrix(1 0 0 1 895.182 1200)">1<tspan font-size="73" x="854.464" y="0">1</tspan><tspan font-size="73" x="1708.93" y="0">2</tspan><tspan font-size="73" x="2565.49" y="0">1</tspan></text><path d="M3698.85 1378.83 3690.54 1387.45 3683.64 1393.79 3676.31 1399.91 3660.72 1411.92 3643.74 1423.55 3625.33 1434.74 3605.68 1445.47 3584.79 1455.76 3562.65 1465.67 3539.45 1475.01 3515.07 1483.98 3489.76 1492.43 3463.44 1500.39 3436.14 1507.78 3408.02 1514.73 3379.09 1521.18 3349.42 1527 3319 1532.32 3287.95 1537.08 3256.28 1541.27 3224.11 1544.91 3191.44 1547.91 3158.27 1550.35 3124.79 1552.1 3090.93 1553.29 3056.83 1553.85 3022.47 1553.73 2987.99 1552.92 2953.38 1551.48 2918.65 1549.35 2883.98 1546.53 2849.37 1542.96 2810.75 1538.21 2773.01 1532.51 2736.38 1526.06 2700.88 1518.8 2666.7 1510.79 2633.75 1502.08 2602.32 1492.69 2587.08 1487.74 2572.23 1482.6 2557.82 1477.33 2543.78 1471.88 2530.11 1466.3 2516.88 1460.53 2504.08 1454.63 2491.72 1448.61 2479.8 1442.4 2468.31 1436.12 2457.31 1429.65 2446.76 1423.05 2436.64 1416.32 2427.07 1409.47 2417.95 1402.48 2409.38 1395.36 2401.31 1388.12 2393.73 1380.81 2396.91 1377.51 2404.47 1384.79 2404.41 1384.73 2412.41 1391.92 2412.34 1391.86 2420.84 1398.92 2420.77 1398.87 2429.83 1405.81 2429.77 1405.76 2439.27 1412.58 2439.21 1412.53 2449.27 1419.22 2449.21 1419.18 2459.71 1425.74 2459.66 1425.71 2470.6 1432.15 2470.54 1432.11 2481.97 1438.36 2481.93 1438.34 2493.81 1444.53 2493.75 1444.5 2506.07 1450.5 2506.02 1450.48 2518.77 1456.36 2518.73 1456.34 2531.92 1462.09 2531.87 1462.07 2545.49 1467.63 2545.45 1467.61 2559.45 1473.05 2559.41 1473.03 2573.79 1478.28 2573.75 1478.27 2588.56 1483.4 2588.52 1483.38 2603.71 1488.32 2603.66 1488.3 2635.03 1497.68 2634.96 1497.66 2667.84 1506.35 2667.77 1506.33 2701.9 1514.33 2701.83 1514.32 2737.27 1521.57 2737.21 1521.56 2773.77 1527.99 2773.72 1527.98 2811.4 1533.67 2811.34 1533.66 2849.91 1538.41 2849.86 1538.41 2884.42 1541.97 2884.37 1541.97 2919 1544.78 2918.95 1544.78 2953.64 1546.9 2953.6 1546.9 2988.16 1548.34 2988.12 1548.33 3022.55 1549.15 3022.51 1549.15 3056.82 1549.27 3056.77 1549.27 3090.84 1548.71 3090.79 1548.71 3124.61 1547.52 3124.57 1547.52 3158.01 1545.77 3157.96 1545.78 3191.08 1543.34 3191.04 1543.34 3223.67 1540.34 3223.62 1540.35 3255.74 1536.72 3255.7 1536.73 3287.32 1532.54 3287.28 1532.55 3318.28 1527.8 3318.23 1527.81 3348.61 1522.49 3348.56 1522.5 3378.18 1516.69 3378.13 1516.7 3407 1510.26 3406.95 1510.28 3435.01 1503.34 3434.96 1503.35 3462.21 1495.98 3462.15 1495.99 3488.4 1488.06 3488.34 1488.08 3513.59 1479.64 3513.52 1479.66 3537.83 1470.72 3537.77 1470.75 3560.89 1461.44 3560.81 1461.47 3582.88 1451.6 3582.8 1451.63 3603.61 1441.38 3603.53 1441.43 3623.09 1430.74 3623 1430.79 3641.31 1419.67 3641.2 1419.73 3658.08 1408.17 3657.98 1408.25 3673.48 1396.31 3673.4 1396.37 3680.65 1390.3 3680.58 1390.37 3687.39 1384.12 3687.29 1384.22 3695.55 1375.65ZM3683.86 1371.58 3712.37 1360.06 3704.48 1389.78Z" fill="#0070C0"/><text fill="#0070C0" font-family="DengXian,DengXian_MSFontService,sans-serif" font-weight="400" font-size="73" transform="matrix(1 0 0 1 3026.06 1633)">1<tspan fill="#000000" font-size="64" x="-122.333" y="-239">I</tspan><tspan fill="#000000" font-size="64" x="22.6006" y="-239">E</tspan></text><path d="M2937.5 1371.21 3009.13 1371.21 3009.13 1375.79 2937.5 1375.79ZM3004.55 1359.75 3032.05 1373.5 3004.55 1387.25Z" fill="#0070C0"/><text fill="#0070C0" font-family="DengXian,DengXian_MSFontService,sans-serif" font-weight="400" font-size="64" transform="matrix(1 0 0 1 2966.59 1344)">1</text><path d="M3880.21 1433.64 3871.25 1450.56 3861.25 1467.35 3850.25 1483.87 3838.24 1500.29 3811.32 1532.29 3780.64 1563.54 3746.27 1593.83 3708.35 1623.22 3667.06 1651.73 3622.47 1679.17 3574.76 1705.65 3523.99 1731.07 3470.28 1755.48 3413.78 1778.7 3354.64 1800.85 3292.96 1821.74 3228.9 1841.51 3162.53 1860.03 3093.97 1877.29 3023.42 1893.24 2950.93 1907.81 2876.69 1921.07 2800.7 1932.89 2723.22 1943.34 2644.36 1952.28 2564.13 1959.72 2482.83 1965.66 2400.41 1970.04 2317.12 1972.79 2233.01 1973.92 2148.21 1973.35 2062.92 1971.17 1977.18 1967.16 1891.13 1961.47 1766.2 1949.97 1705.09 1942.84 1645.06 1934.89 1586.02 1926.14 1528.04 1916.51 1471.26 1906.13 1415.59 1894.93 1361.17 1882.92 1308.01 1870.22 1256.21 1856.71 1205.73 1842.57 1156.69 1827.69 1109.01 1812.11 1062.9 1795.9 1018.35 1779.01 975.358 1761.55 933.99 1743.4 894.306 1724.75 856.305 1705.46 820.114 1685.62 785.733 1665.2 753.224 1644.34 722.583 1622.91 693.942 1600.98 667.234 1578.59 642.584 1555.76 620.057 1532.48 599.655 1508.82 581.375 1484.7 565.347 1460.18 562.692 1455.37 566.705 1453.15 569.319 1457.89 569.23 1457.75 585.168 1482.12 585.076 1481.99 603.264 1505.99 603.173 1505.88 623.486 1529.44 623.397 1529.34 645.834 1552.53 645.745 1552.44 670.307 1575.19 670.222 1575.12 696.847 1597.43 696.768 1597.37 725.331 1619.24 725.251 1619.18 755.813 1640.56 755.737 1640.51 788.175 1661.32 788.108 1661.28 822.42 1681.65 822.352 1681.62 858.477 1701.43 858.412 1701.39 896.349 1720.64 896.287 1720.61 935.912 1739.24 935.858 1739.21 977.171 1757.34 977.112 1757.31 1020.05 1774.75 1020 1774.73 1064.5 1791.61 1064.45 1791.59 1110.51 1807.78 1110.46 1807.76 1158.09 1823.32 1158.04 1823.31 1207.04 1838.18 1206.99 1838.17 1257.43 1852.29 1257.39 1852.28 1309.14 1865.78 1309.09 1865.77 1362.22 1878.46 1362.18 1878.45 1416.56 1890.45 1416.51 1890.44 1472.14 1901.63 1472.1 1901.62 1528.85 1912 1528.81 1911.99 1586.75 1921.61 1586.71 1921.61 1645.71 1930.36 1645.68 1930.35 1705.68 1938.29 1705.64 1938.29 1766.7 1945.41 1766.65 1945.41 1891.52 1956.91 1891.46 1956.9 1977.46 1962.59 1977.42 1962.59 2063.11 1966.59 2063.06 1966.58 2148.31 1968.77 2148.27 1968.77 2233.02 1969.33 2232.97 1969.33 2317.03 1968.21 2316.99 1968.21 2400.24 1965.46 2400.19 1965.46 2482.57 1961.09 2482.52 1961.09 2563.77 1955.15 2563.73 1955.16 2643.91 1947.72 2643.87 1947.72 2722.68 1938.79 2722.63 1938.79 2800.07 1928.35 2800.02 1928.36 2875.96 1916.55 2875.91 1916.56 2950.1 1903.31 2950.05 1903.32 3022.49 1888.75 3022.43 1888.76 3092.93 1872.83 3092.88 1872.84 3161.38 1855.59 3161.32 1855.6 3227.63 1837.1 3227.57 1837.12 3291.57 1817.37 3291.51 1817.39 3353.14 1796.52 3353.07 1796.54 3412.13 1774.42 3412.07 1774.44 3468.5 1751.26 3468.43 1751.29 3522.05 1726.91 3521.97 1726.95 3572.66 1701.58 3572.58 1701.62 3620.2 1675.18 3620.11 1675.24 3664.61 1647.86 3664.51 1647.93 3705.7 1619.49 3705.6 1619.56 3743.41 1590.25 3743.3 1590.34 3777.55 1560.16 3777.43 1560.27 3807.99 1529.14 3807.87 1529.27 3834.68 1497.4 3834.59 1497.52 3846.53 1481.21 3846.47 1481.29 3857.4 1464.86 3857.34 1464.95 3867.28 1448.26 3867.22 1448.36 3876.16 1431.49ZM554.872 1464.92 553.63 1434.19 578.952 1451.63Z" fill="#FF0000"/><text fill="#FF0000" font-family="DengXian,DengXian_MSFontService,sans-serif" font-weight="400" font-size="73" transform="matrix(1 0 0 1 702.682 863)">block,<tspan font-size="73" x="203.958" y="0">squash</tspan><tspan font-size="73" x="191.47" y="1009">squash</tspan><tspan fill="#000000" font-size="73" x="-468.28" y="-363">注：</tspan><tspan font-size="73" x="-321.614" y="-363">反向信号</tspan><tspan fill="#000000" font-size="73" x="-28.2804" y="-363">延迟均为</tspan><tspan fill="#000000" font-size="73" x="265.053" y="-363">1</tspan></text><path d="M1478.01 1020.3 1484.33 1010.27 1490.35 1003.04 1496.94 996.067 1504.1 989.288 1511.89 982.766 1520.23 976.512 1529.06 970.453 1538.4 964.711 1548.3 959.165 1558.63 953.937 1569.39 948.966 1580.59 944.247 1592.22 939.843 1604.23 935.758 1616.56 931.92 1642.24 925.266 1669.18 919.865 1697.05 915.91 1725.84 913.338 1740.48 912.584 1755.29 912.271 1770.16 912.333 1785.22 912.773 1800.28 913.588 1815.48 914.844 1837.94 917.479 1859.72 920.932 1880.7 925.266 1900.92 930.353 1920.28 936.197 1938.64 942.736 1956.01 949.973 1972.31 957.906 1987.5 966.414 2001.39 975.502 2014.09 985.173 2025.36 995.367 2035.24 1006.01 2039.64 1011.56 2043.65 1017.16 2047.29 1022.9 2050.48 1028.77 2053.29 1034.72 2055.59 1040.63 2051.32 1042.29 2049.05 1036.45 2049.12 1036.6 2046.37 1030.79 2046.42 1030.91 2043.3 1025.16 2043.38 1025.29 2039.81 1019.66 2039.89 1019.77 2035.95 1014.27 2036.02 1014.36 2031.7 1008.92 2031.82 1009.06 2022.07 998.559 2022.21 998.699 2011.09 988.637 2011.24 988.761 1998.67 979.198 1998.81 979.292 1985.06 970.292 1985.19 970.374 1970.13 961.937 1970.25 961.998 1954.06 954.123 1954.18 954.178 1936.93 946.99 1937.04 947.034 1918.79 940.534 1918.9 940.569 1899.65 934.756 1899.75 934.785 1879.63 929.722 1879.72 929.744 1858.85 925.432 1858.95 925.451 1837.27 922.013 1837.36 922.026 1814.98 919.401 1815.06 919.409 1799.94 918.159 1800 918.163 1785 917.351 1785.06 917.353 1770.06 916.916 1770.12 916.917 1755.3 916.854 1755.36 916.854 1740.61 917.166 1740.68 917.164 1726.12 917.914 1726.2 917.907 1697.52 920.47 1697.63 920.456 1669.88 924.394 1670.01 924.372 1643.2 929.747 1643.32 929.718 1617.76 936.343 1617.87 936.313 1605.62 940.126 1605.68 940.107 1593.74 944.169 1593.81 944.143 1582.25 948.518 1582.33 948.487 1571.2 953.174 1571.27 953.143 1560.59 958.08 1560.66 958.045 1550.41 963.232 1550.5 963.186 1540.68 968.686 1540.76 968.64 1531.51 974.327 1531.61 974.265 1522.86 980.265 1522.94 980.208 1514.69 986.396 1514.78 986.319 1507.1 992.757 1507.2 992.664 1500.14 999.351 1500.23 999.262 1493.73 1006.14 1493.82 1006.03 1487.95 1013.09 1488.13 1012.85 1481.88 1022.74ZM1494.26 1023.78 1469.4 1041.87 1469.85 1011.13Z" fill="#FF0000"/><rect x="296.5" y="1043.5" width="390" height="389" stroke="#000000" stroke-width="4.58333" stroke-miterlimit="8" fill="none"/><text font-family="DengXian,DengXian_MSFontService,sans-serif" font-weight="700" font-size="73" transform="matrix(1 0 0 1 401.41 1261)">Fetch</text><rect x="1143.5" y="1043.5" width="390" height="389" stroke="#000000" stroke-width="4.58333" stroke-miterlimit="8" fill="none"/><text font-family="DengXian,DengXian_MSFontService,sans-serif" font-weight="700" font-size="73" transform="matrix(1 0 0 1 1211.35 1261)">Decode</text><rect x="2005.5" y="1043.5" width="390" height="389" stroke="#000000" stroke-width="4.58333" stroke-miterlimit="8" fill="none"/><text font-family="DengXian,DengXian_MSFontService,sans-serif" font-weight="700" font-size="73" transform="matrix(1 0 0 1 2065.08 1261)">Rename</text><path d="M2219.45 1024.73 2222.2 1015.78 2227.6 1000.45 2233.5 985.379 2239.91 970.5 2246.75 955.809 2254.16 941.242 2262.01 926.932 2270.29 912.812 2279.02 898.876 2288.24 885.194 2297.91 871.639 2308.01 858.402 2318.48 845.29 2329.46 832.429 2340.75 819.819 2352.55 807.463 2364.65 795.298 2377.19 783.385 2390.05 771.65 2416.94 749.086 2445.28 727.459 2474.92 706.9 2505.88 687.41 2538.09 668.986 2571.49 651.755 2605.95 635.655 2641.4 620.745 2677.93 607.088 2715.32 594.687 2753.52 583.538 2792.61 573.705 2832.38 565.25 2872.77 558.173 2913.79 552.475 2955.37 548.216 2997.44 545.461 3018.62 544.647 3039.91 544.208 3061.26 544.146 3082.74 544.459 3104.22 545.148 3125.83 546.275 3147.49 547.778 3169.16 549.719 3190.89 552.036 3212.69 554.729 3244.87 559.551 3276.5 565.187 3307.68 571.638 3338.37 578.903 3368.5 586.982 3398.06 595.75 3427.13 605.335 3455.5 615.67 3483.32 626.696 3510.45 638.475 3536.88 650.941 3562.7 664.036 3587.76 677.822 3612.08 692.236 3635.58 707.277 3658.39 722.946 3680.33 739.182 3701.46 755.983 3721.71 773.351 3741.09 791.286 3759.53 809.723 3777.09 828.665 3793.65 848.113 3809.21 868.001 3823.83 888.394 3837.38 909.229 3849.94 930.444 3861.36 952.102 3871.72 974.138 3880.95 996.554 3889.05 1019.29 3895.9 1042.32 3891.5 1043.63 3884.68 1020.65 3884.72 1020.77 3876.65 998.144 3876.69 998.248 3867.51 975.935 3867.55 976.037 3857.24 954.1 3857.29 954.194 3845.91 932.632 3845.96 932.73 3833.46 911.605 3833.52 911.687 3820.02 890.937 3820.07 891.023 3805.51 870.71 3805.57 870.787 3790.07 850.975 3790.13 851.048 3773.63 831.673 3773.69 831.746 3756.19 812.871 3756.25 812.933 3737.88 794.558 3737.94 794.619 3718.63 776.744 3718.7 776.802 3698.51 759.49 3698.57 759.544 3677.51 742.794 3677.57 742.842 3655.7 726.655 3655.76 726.702 3633.01 711.077 3633.08 711.118 3609.64 696.118 3609.71 696.159 3585.46 681.784 3585.52 681.821 3560.52 668.071 3560.59 668.106 3534.84 655.044 3534.9 655.073 3508.52 642.635 3508.59 642.665 3481.52 630.915 3481.59 630.943 3453.84 619.943 3453.9 619.966 3425.59 609.653 3425.66 609.676 3396.66 600.114 3396.72 600.135 3367.22 591.385 3367.28 591.401 3337.22 583.339 3337.28 583.355 3306.66 576.105 3306.72 576.119 3275.6 569.682 3275.66 569.694 3244.1 564.069 3244.16 564.079 3212.04 559.266 3212.09 559.274 3190.34 556.587 3190.38 556.591 3168.69 554.279 3168.73 554.283 3147.11 552.345 3147.15 552.349 3125.53 550.849 3125.57 550.851 3104.01 549.726 3104.05 549.728 3082.61 549.041 3082.65 549.042 3061.22 548.729 3061.26 548.729 3039.94 548.792 3039.98 548.791 3018.73 549.229 3018.78 549.228 2997.65 550.04 2997.71 550.037 2955.71 552.787 2955.8 552.78 2914.3 557.03 2914.38 557.02 2873.44 562.707 2873.52 562.695 2833.21 569.757 2833.29 569.742 2793.6 578.179 2793.68 578.16 2754.68 587.972 2754.77 587.95 2716.64 599.075 2716.72 599.05 2679.41 611.425 2679.49 611.397 2643.05 625.022 2643.14 624.988 2607.76 639.863 2607.84 639.826 2573.47 655.889 2573.55 655.849 2540.24 673.037 2540.33 672.989 2508.2 691.364 2508.28 691.314 2477.41 710.752 2477.49 710.696 2447.93 731.196 2448.02 731.134 2419.77 752.697 2419.85 752.631 2393.04 775.13 2393.11 775.068 2380.29 786.756 2380.33 786.724 2367.83 798.599 2367.87 798.554 2355.81 810.679 2355.85 810.645 2344.1 822.957 2344.14 822.904 2332.89 835.466 2332.93 835.425 2321.99 848.238 2322.04 848.181 2311.6 861.243 2311.63 861.203 2301.57 874.39 2301.62 874.33 2291.99 887.83 2292.02 887.781 2282.84 901.406 2282.88 901.341 2274.19 915.216 2274.23 915.16 2265.98 929.222 2266.01 929.164 2258.2 943.414 2258.23 943.351 2250.85 957.851 2250.89 957.78 2244.08 972.405 2244.1 972.344 2237.73 987.156 2237.76 987.086 2231.88 1002.09 2231.91 1002.01 2226.54 1017.26 2226.57 1017.17 2223.83 1026.07ZM2236.12 1024.91 2215.13 1047.37 2209.76 1017.1Z" fill="#FF0000"/><path d="M2343.94 1020.32 2350.27 1010.34 2356.22 1003.11 2362.82 996.129 2369.98 989.35 2377.76 982.831 2386.04 976.577 2394.87 970.518 2404.21 964.712 2414.04 959.229 2424.37 953.939 2435.14 948.966 2446.34 944.247 2457.91 939.844 2469.85 935.759 2482.18 931.92 2507.86 925.266 2534.67 919.866 2562.55 915.848 2591.28 913.276 2605.92 912.585 2620.66 912.208 2635.53 912.271 2650.53 912.647 2665.6 913.526 2680.79 914.782 2703.19 917.417 2724.97 920.932 2745.95 925.203 2766.18 930.354 2785.47 936.198 2803.83 942.736 2821.19 949.973 2837.44 957.907 2852.56 966.414 2866.51 975.502 2879.16 985.175 2890.43 995.37 2900.3 1006.07 2904.71 1011.56 2908.66 1017.23 2912.29 1022.96 2915.48 1028.84 2918.29 1034.78 2920.61 1040.67 2916.35 1042.35 2914.06 1036.53 2914.12 1036.67 2911.37 1030.85 2911.42 1030.97 2908.3 1025.22 2908.38 1025.35 2904.81 1019.73 2904.87 1019.81 2900.99 1014.25 2901.09 1014.37 2896.78 1009 2896.88 1009.12 2887.13 998.554 2887.28 998.699 2876.15 988.637 2876.3 988.758 2863.8 979.195 2863.94 979.295 2850.12 970.295 2850.25 970.372 2835.25 961.935 2835.37 961.997 2819.24 954.122 2819.37 954.178 2802.12 946.99 2802.23 947.034 2783.98 940.534 2784.09 940.568 2764.9 934.756 2765 934.783 2744.87 929.658 2744.98 929.683 2724.11 925.433 2724.2 925.45 2702.51 921.95 2702.61 921.963 2680.29 919.338 2680.37 919.346 2665.25 918.096 2665.3 918.1 2650.3 917.225 2650.38 917.228 2635.44 916.853 2635.49 916.854 2620.68 916.792 2620.75 916.791 2606.06 917.166 2606.11 917.164 2591.55 917.852 2591.64 917.845 2563.02 920.407 2563.14 920.393 2535.39 924.393 2535.52 924.371 2508.83 929.746 2508.95 929.718 2483.39 936.343 2483.49 936.313 2471.24 940.126 2471.3 940.106 2459.43 944.168 2459.5 944.142 2448 948.517 2448.08 948.487 2436.95 953.174 2437.02 953.143 2426.34 958.08 2426.42 958.04 2416.17 963.29 2416.24 963.251 2406.49 968.689 2406.59 968.634 2397.34 974.384 2397.42 974.327 2388.67 980.327 2388.76 980.266 2380.57 986.453 2380.66 986.382 2372.97 992.819 2373.08 992.726 2366.01 999.414 2366.1 999.324 2359.6 1006.2 2359.71 1006.08 2353.89 1013.14 2354.06 1012.91 2347.81 1022.77ZM2360.2 1023.77 2335.38 1041.91 2335.75 1011.17Z" fill="#FF0000"/><path d="M632.006 1020.3 638.329 1010.27 644.347 1003.04 650.941 996.067 658.1 989.288 665.888 982.766 674.226 976.512 683.063 970.453 692.401 964.711 702.297 959.165 712.627 953.937 723.387 948.966 734.587 944.247 746.225 939.843 758.228 935.758 770.559 931.92 796.237 925.266 823.176 919.865 851.049 915.91 879.839 913.338 894.479 912.584 909.293 912.271 924.163 912.333 939.22 912.773 954.281 913.588 969.478 914.844 991.938 917.479 1013.72 920.932 1034.7 925.266 1054.92 930.353 1074.28 936.197 1092.64 942.736 1110.01 949.973 1126.31 957.906 1141.5 966.414 1155.39 975.502 1168.09 985.173 1179.36 995.367 1189.24 1006.01 1193.64 1011.56 1197.65 1017.16 1201.29 1022.9 1204.48 1028.77 1207.29 1034.72 1209.59 1040.63 1205.32 1042.29 1203.05 1036.45 1203.12 1036.6 1200.37 1030.79 1200.42 1030.91 1197.3 1025.16 1197.38 1025.29 1193.81 1019.66 1193.89 1019.77 1189.95 1014.27 1190.02 1014.36 1185.7 1008.92 1185.82 1009.06 1176.07 998.559 1176.21 998.699 1165.09 988.637 1165.24 988.761 1152.67 979.198 1152.81 979.292 1139.06 970.292 1139.19 970.374 1124.13 961.937 1124.25 961.998 1108.06 954.123 1108.18 954.178 1090.93 946.99 1091.04 947.034 1072.79 940.534 1072.9 940.569 1053.65 934.756 1053.75 934.785 1033.63 929.722 1033.72 929.744 1012.85 925.432 1012.95 925.451 991.266 922.013 991.358 922.026 968.983 919.401 969.061 919.409 953.936 918.159 954.001 918.163 939.001 917.351 939.058 917.353 924.058 916.916 924.115 916.917 909.303 916.854 909.361 916.854 894.611 917.166 894.68 917.164 880.118 917.914 880.204 917.907 851.516 920.47 851.634 920.456 823.884 924.394 824.013 924.372 797.2 929.747 797.325 929.718 771.762 936.343 771.868 936.313 759.618 940.126 759.676 940.107 747.738 944.169 747.811 944.143 736.248 948.518 736.327 948.487 725.202 953.174 725.273 953.143 714.586 958.08 714.66 958.045 704.41 963.232 704.495 963.186 694.683 968.686 694.763 968.64 685.513 974.327 685.608 974.265 676.858 980.265 676.937 980.208 668.687 986.396 668.784 986.319 661.096 992.757 661.201 992.664 654.138 999.351 654.228 999.262 647.728 1006.14 647.824 1006.03 641.949 1013.09 642.126 1012.85 635.883 1022.74ZM648.262 1023.78 623.401 1041.87 623.845 1011.13Z" fill="#FF0000"/><path d="M3794.9 1434.15 3780.24 1454.92 3762.6 1475.2 3742.28 1494.95 3719.28 1514.12 3693.73 1532.7 3665.75 1550.71 3635.41 1568.14 3602.82 1584.87 3567.99 1601.03 3531.04 1616.5 3492.09 1631.28 3451.28 1645.36 3408.59 1658.76 3364.1 1671.4 3318.05 1683.23 3270.37 1694.36 3221.2 1704.69 3170.65 1714.13 3118.86 1722.83 3065.81 1730.58 3011.64 1737.53 2956.41 1743.53 2843.27 1752.85 2727.08 1758.35 2668.03 1759.6 2608.55 1759.85 2548.58 1759.1 2488.35 1757.23 2427.87 1754.35 2367.27 1750.35 2324.74 1746.91 2282.77 1742.9 2241.49 1738.4 2200.83 1733.46 2160.92 1728.02 2121.7 1722.08 2083.3 1715.7 2045.64 1708.88 2008.79 1701.62 1972.75 1693.93 1937.59 1685.85 1903.36 1677.28 1870.01 1668.4 1837.66 1659.07 1806.3 1649.37 1775.94 1639.29 1746.58 1628.9 1718.34 1618.07 1691.17 1606.99 1665.11 1595.52 1640.24 1583.74 1616.55 1571.65 1594.05 1559.24 1572.79 1546.57 1552.77 1533.58 1534.13 1520.28 1516.74 1506.77 1500.71 1492.95 1486.11 1478.92 1472.88 1464.61 1464.5 1453.91 1468.11 1451.09 1476.43 1461.71 1476.31 1461.57 1489.43 1475.76 1489.34 1475.66 1503.84 1489.6 1503.75 1489.51 1519.68 1503.26 1519.59 1503.19 1536.91 1516.63 1536.83 1516.57 1555.39 1529.82 1555.31 1529.77 1575.25 1542.7 1575.17 1542.66 1596.36 1555.28 1596.29 1555.24 1618.73 1567.62 1618.67 1567.58 1642.29 1579.65 1642.23 1579.62 1667.04 1591.37 1666.99 1591.34 1692.99 1602.78 1692.93 1602.75 1720.05 1613.82 1720.01 1613.8 1748.2 1624.61 1748.14 1624.59 1777.45 1634.96 1777.41 1634.95 1807.72 1645.01 1807.68 1645 1838.99 1654.69 1838.95 1654.67 1871.26 1663.99 1871.21 1663.97 1904.53 1672.85 1904.49 1672.84 1938.68 1681.4 1938.64 1681.39 1973.76 1689.45 1973.73 1689.45 2009.73 1697.13 2009.69 1697.13 2046.51 1704.38 2046.47 1704.37 2084.1 1711.18 2084.06 1711.18 2122.44 1717.55 2122.41 1717.55 2161.59 1723.48 2161.56 1723.48 2201.43 1728.92 2201.4 1728.91 2242.03 1733.85 2242 1733.85 2283.25 1738.35 2283.22 1738.34 2325.16 1742.34 2325.12 1742.34 2367.62 1745.78 2367.59 1745.78 2428.15 1749.78 2428.11 1749.77 2488.55 1752.65 2488.51 1752.65 2548.7 1754.52 2548.65 1754.52 2608.59 1755.27 2608.55 1755.27 2667.99 1755.02 2667.95 1755.02 2726.95 1753.77 2726.89 1753.77 2843.02 1748.27 2842.94 1748.28 2956 1738.97 2955.94 1738.97 3011.13 1732.97 3011.08 1732.98 3065.21 1726.04 3065.17 1726.04 3118.17 1718.3 3118.12 1718.3 3169.87 1709.62 3169.83 1709.62 3220.33 1700.18 3220.28 1700.19 3269.4 1689.88 3269.35 1689.89 3316.98 1678.77 3316.93 1678.78 3362.93 1666.97 3362.87 1666.98 3407.31 1654.36 3407.25 1654.38 3449.88 1641 3449.81 1641.02 3490.56 1626.96 3490.5 1626.98 3529.37 1612.23 3529.3 1612.26 3566.18 1596.82 3566.1 1596.86 3600.85 1580.73 3600.77 1580.77 3633.27 1564.09 3633.17 1564.14 3663.42 1546.76 3663.32 1546.82 3691.2 1528.89 3691.09 1528.96 3716.53 1510.46 3716.41 1510.55 3739.28 1491.49 3739.15 1491.61 3759.34 1471.98 3759.21 1472.12 3776.71 1452 3776.57 1452.18 3791.16 1431.51ZM1457.93 1464.33 1452.74 1434.03 1480.1 1448.06Z" fill="#FF0000"/><rect x="3714.5" y="1043.5" width="390" height="389" stroke="#000000" stroke-width="4.58333" stroke-miterlimit="8" fill="none"/><text font-family="DengXian,DengXian_MSFontService,sans-serif" font-weight="700" font-size="73" transform="matrix(1 0 0 1 3776.87 1261)">Commit<tspan font-weight="400" font-size="64" x="-38.5303" y="120">ROB</tspan><tspan fill="#FF0000" font-weight="400" font-size="73" x="-2347.68" y="385">squash</tspan><tspan fill="#FF0000" font-weight="400" font-size="73" x="-2091.96" y="-398">block</tspan></text><path d="M3197.01 1020.3 3203.33 1010.27 3209.35 1003.04 3215.94 996.067 3223.1 989.288 3230.89 982.766 3239.23 976.512 3248.06 970.453 3257.4 964.711 3267.3 959.165 3277.63 953.937 3288.39 948.966 3299.59 944.247 3311.23 939.843 3323.23 935.758 3335.56 931.92 3361.24 925.266 3388.18 919.865 3416.05 915.91 3444.84 913.338 3459.48 912.584 3474.29 912.271 3489.16 912.333 3504.22 912.773 3519.28 913.588 3534.48 914.844 3556.94 917.479 3578.72 920.932 3599.7 925.266 3619.92 930.353 3639.28 936.197 3657.64 942.736 3675.01 949.973 3691.31 957.906 3706.5 966.414 3720.39 975.502 3733.09 985.173 3744.36 995.367 3754.24 1006.01 3758.64 1011.56 3762.65 1017.16 3766.29 1022.9 3769.48 1028.77 3772.29 1034.72 3774.59 1040.63 3770.32 1042.29 3768.05 1036.45 3768.12 1036.6 3765.37 1030.79 3765.42 1030.91 3762.3 1025.16 3762.38 1025.29 3758.81 1019.66 3758.89 1019.77 3754.95 1014.27 3755.02 1014.36 3750.7 1008.92 3750.82 1009.06 3741.07 998.559 3741.21 998.699 3730.09 988.637 3730.24 988.761 3717.67 979.198 3717.81 979.292 3704.06 970.292 3704.19 970.374 3689.13 961.937 3689.25 961.998 3673.06 954.123 3673.18 954.178 3655.93 946.99 3656.04 947.034 3637.79 940.534 3637.9 940.569 3618.65 934.756 3618.75 934.785 3598.63 929.722 3598.72 929.744 3577.85 925.432 3577.95 925.451 3556.27 922.013 3556.36 922.026 3533.98 919.401 3534.06 919.409 3518.94 918.159 3519 918.163 3504 917.351 3504.06 917.353 3489.06 916.916 3489.12 916.917 3474.3 916.854 3474.36 916.854 3459.61 917.166 3459.68 917.164 3445.12 917.914 3445.2 917.907 3416.52 920.47 3416.63 920.456 3388.88 924.394 3389.01 924.372 3362.2 929.747 3362.32 929.718 3336.76 936.343 3336.87 936.313 3324.62 940.126 3324.68 940.107 3312.74 944.169 3312.81 944.143 3301.25 948.518 3301.33 948.487 3290.2 953.174 3290.27 953.143 3279.59 958.08 3279.66 958.045 3269.41 963.232 3269.5 963.186 3259.68 968.686 3259.76 968.64 3250.51 974.327 3250.61 974.265 3241.86 980.265 3241.94 980.208 3233.69 986.396 3233.78 986.319 3226.1 992.757 3226.2 992.664 3219.14 999.351 3219.23 999.262 3212.73 1006.14 3212.82 1006.03 3206.95 1013.09 3207.13 1012.85 3200.88 1022.74ZM3213.26 1023.78 3188.4 1041.87 3188.85 1011.13Z" fill="#FF0000"/><text fill="#FF0000" font-family="DengXian,DengXian_MSFontService,sans-serif" font-weight="400" font-size="73" transform="matrix(1 0 0 1 2599.16 787)">block,<tspan font-size="73" x="-137.5" y="88">IQ/LSQ</tspan><tspan font-size="73" x="111.146" y="88">entries</tspan><tspan font-size="73" x="768.893" y="88">squash</tspan><tspan font-size="73" x="178.25" y="-368">squash,</tspan><tspan font-size="73" x="433.771" y="-368">ROB</tspan><tspan font-size="73" x="593.042" y="-368">entries,</tspan><tspan font-size="73" x="280.802" y="-280">doneSeqNum</tspan></text></g></svg>